<?xml version="1.0" encoding="utf-8"?>
<!-- Generator: Adobe Illustrator 24.0.0, SVG Export Plug-In . SVG Version: 6.00 Build 0)  -->
<svg version="1.1" id="Layer_1" xmlns="http://www.w3.org/2000/svg" xmlns:xlink="http://www.w3.org/1999/xlink" x="0px" y="0px"
	 viewBox="0 0 256 256" style="enable-background:new 0 0 256 256;" xml:space="preserve">
<style type="text/css">
	.st0{fill:#FC5D3D;}
	.st1{fill:#AFAFAF;}
	.st2{fill:#72C2E9;}
	.st3{fill:#FFFFFF;}
	.st4{fill:#EFEFEF;}
	.st5{fill:#878787;}
	.st6{fill:#F0C020;}
	.st7{fill:#F8E5B0;}
	.st8{fill:#B34F33;}
	.st9{fill:#FFCBC3;}
	.st10{fill:#FFB69F;}
	.st11{fill:#C5E5FE;}
	.st12{fill:#13BF6D;}
	.st13{fill:#F9E5AF;}
	.st14{fill:#7A7380;}
	.st15{fill:#72C1E8;}
	.st16{fill:#C5E5FF;}
	.st17{fill:#FFCBC2;}
	.st18{fill:#6E6D6C;}
	.st19{fill:#F2E1D7;}
	.st20{fill:#7D7B79;}
	.st21{fill:#D6C0B3;}
	.st22{fill:#76FFBB;}
	.st23{fill:#CF941C;}
	.st24{fill:#7C7B7A;}
	.st25{fill:#FEB69F;}
	.st26{fill:#E8A61E;}
	.st27{fill:#EFF0F0;}
	.st28{fill:#EDC21D;}
	.st29{fill:#4BA5C8;}
	.st30{fill:#E8A61F;}
	.st31{fill:#823A26;}
	.st32{fill:#4C4944;}
	.st33{fill:#4C4945;}
</style>
<g>
	<path class="st1" d="M230.902,216.625H25.098v-8.969c0-2.761,2.239-5,5-5h195.804c2.761,0,5,2.239,5,5V216.625z"/>
	<path class="st2" d="M244.667,250.125H11.333c-2.761,0-5-2.239-5-5v-23.5c0-2.761,2.239-5,5-5h233.333c2.761,0,5,2.239,5,5v23.5
		C249.667,247.886,247.428,250.125,244.667,250.125z"/>
	<circle class="st3" cx="27.47" cy="233.5" r="6.136"/>
	<circle class="st3" cx="60.98" cy="233.5" r="6.136"/>
	<circle class="st3" cx="94.49" cy="233.5" r="6.136"/>
	<circle class="st3" cx="128" cy="233.5" r="6.136"/>
	<circle class="st3" cx="161.51" cy="233.5" r="6.136"/>
	<circle class="st3" cx="195.02" cy="233.5" r="6.136"/>
	<circle class="st3" cx="228.53" cy="233.5" r="6.136"/>
	<polygon class="st0" points="149.96,57.607 106.04,57.607 100.646,39.375 155.354,39.375 	"/>
	<path class="st1" d="M141.135,57.607h-26.27v13.032c0,2.267,1.838,4.105,4.105,4.105h18.061c2.267,0,4.105-1.838,4.105-4.105
		V57.607z"/>
	<path class="st2" d="M244.667,39.375H11.333c-2.761,0-5-2.239-5-5v-23.5c0-2.761,2.239-5,5-5h233.333c2.761,0,5,2.239,5,5v23.5
		C249.667,37.136,247.428,39.375,244.667,39.375z"/>
	<circle class="st3" cx="60.98" cy="22.75" r="6.136"/>
	<circle class="st3" cx="94.49" cy="22.75" r="6.136"/>
	<circle class="st3" cx="128" cy="22.75" r="6.136"/>
	<circle class="st3" cx="161.51" cy="22.75" r="6.136"/>
	<circle class="st3" cx="195.02" cy="22.75" r="6.136"/>
	<circle class="st3" cx="228.53" cy="22.75" r="6.136"/>
	<circle class="st3" cx="27.47" cy="22.75" r="6.136"/>
	<path class="st30" d="M188.916,136.127H67.174c-2.853,0-5.077-2.534-4.654-5.358C65.11,113.362,80.114,100,98.252,100h59.586
		c18.12,0,33.143,13.353,35.733,30.769C193.993,133.593,191.778,136.127,188.916,136.127z"/>
	<path class="st0" d="M187.115,136.127v14.789h-85.034c-2.243,0-4.063,1.82-4.063,4.063v7.892c0,3.753-3.05,6.803-6.803,6.803
		s-6.803-3.05-6.803-6.803v-7.892c0-2.243-1.82-4.063-4.063-4.063H68.976v-14.789H187.115z"/>
	<path class="st31" d="M84.412,154.977v6.795H68.976v-10.857H80.35C82.593,150.915,84.412,152.734,84.412,154.977z"/>
	<path class="st31" d="M134.557,161.772h-36.54v-6.795c0-2.243,1.818-4.062,4.062-4.062h14.94L134.557,161.772z"/>
	<polygon class="st31" points="187.115,150.915 187.115,161.772 158.42,161.772 167.982,150.915 	"/>
	<path class="st12" d="M202.354,169.223c-0.732,5.292-3.941,9.834-8.389,12.433c-7.085,4.148-16.365,2.693-21.817-3.829
		c-5.189,7.845-15.173,9.703-22.643,5.583c-6.446,9.181-19.9,9.802-27.175,1.164c-8.06,7.723-21.939,5.865-27.24-4.851
		c-4.776,3.247-11.148,3.219-15.924-0.328c-3.509,5.94-10.772,8.314-17.041,5.762c-8.436-3.444-11.101-13.784-5.912-20.86
		c1.192-1.633,3.143-2.524,5.161-2.524c8.594,0,14.456,0,23.037,0v1.098c0,3.753,3.05,6.803,6.803,6.803s6.803-3.05,6.803-6.803
		v-1.098h36.54l7.948,5.208v2.185c0,3.237,2.627,5.865,5.865,5.865c3.247,0,5.874-2.627,5.874-5.865v-2.645l4.176-4.748h37.45
		C199.923,161.772,202.992,165.413,202.354,169.223z"/>
	<path class="st30" d="M193.965,181.656v5.799c0,8.389-6.784,15.201-15.201,15.201H77.327c-8.398,0-15.201-6.794-15.201-15.201
		v-2.299c6.268,2.552,13.531,0.178,17.041-5.762c4.776,3.547,11.148,3.575,15.924,0.328c5.302,10.716,19.18,12.574,27.24,4.851
		c7.284,8.649,20.738,8.005,27.175-1.164c7.469,4.119,17.453,2.261,22.643-5.583C177.6,184.349,186.88,185.803,193.965,181.656z"/>
	<path class="st6" d="M167.982,150.915l-9.562,10.857l-4.176,4.748v2.645c0,3.237-2.627,5.865-5.874,5.865
		c-3.237,0-5.865-2.627-5.865-5.865v-2.185l-7.948-5.208l-17.538-10.857H167.982z"/>
	<path d="M27.47,242.137c4.762,0,8.636-3.874,8.636-8.637s-3.874-8.637-8.636-8.637s-8.636,3.874-8.636,8.637
		S22.708,242.137,27.47,242.137z M27.47,229.863c2.005,0,3.636,1.632,3.636,3.637s-1.631,3.637-3.636,3.637
		s-3.636-1.632-3.636-3.637S25.465,229.863,27.47,229.863z"/>
	<path d="M60.98,242.137c4.762,0,8.636-3.874,8.636-8.637s-3.874-8.637-8.636-8.637s-8.637,3.874-8.637,8.637
		S56.218,242.137,60.98,242.137z M60.98,229.863c2.005,0,3.636,1.632,3.636,3.637s-1.631,3.637-3.636,3.637
		c-2.005,0-3.637-1.632-3.637-3.637S58.975,229.863,60.98,229.863z"/>
	<path d="M94.49,242.137c4.762,0,8.637-3.874,8.637-8.637s-3.875-8.637-8.637-8.637s-8.636,3.874-8.636,8.637
		S89.728,242.137,94.49,242.137z M94.49,229.863c2.005,0,3.637,1.632,3.637,3.637s-1.631,3.637-3.637,3.637
		c-2.005,0-3.636-1.632-3.636-3.637S92.485,229.863,94.49,229.863z"/>
	<path d="M128,242.137c4.763,0,8.637-3.874,8.637-8.637s-3.874-8.637-8.637-8.637c-4.762,0-8.636,3.874-8.636,8.637
		S123.238,242.137,128,242.137z M128,229.863c2.005,0,3.637,1.632,3.637,3.637s-1.632,3.637-3.637,3.637s-3.636-1.632-3.636-3.637
		S125.995,229.863,128,229.863z"/>
	<path d="M161.51,242.137c4.763,0,8.637-3.874,8.637-8.637s-3.874-8.637-8.637-8.637c-4.762,0-8.636,3.874-8.636,8.637
		S156.748,242.137,161.51,242.137z M161.51,229.863c2.005,0,3.637,1.632,3.637,3.637s-1.632,3.637-3.637,3.637
		s-3.636-1.632-3.636-3.637S159.505,229.863,161.51,229.863z"/>
	<path d="M195.021,242.137c4.762,0,8.636-3.874,8.636-8.637s-3.874-8.637-8.636-8.637c-4.763,0-8.637,3.874-8.637,8.637
		S190.258,242.137,195.021,242.137z M195.021,229.863c2.005,0,3.636,1.632,3.636,3.637s-1.631,3.637-3.636,3.637
		s-3.637-1.632-3.637-3.637S193.016,229.863,195.021,229.863z"/>
	<path d="M228.53,242.137c4.763,0,8.637-3.874,8.637-8.637s-3.874-8.637-8.637-8.637s-8.637,3.874-8.637,8.637
		S223.768,242.137,228.53,242.137z M228.53,229.863c2.005,0,3.637,1.632,3.637,3.637s-1.632,3.637-3.637,3.637
		s-3.637-1.632-3.637-3.637S226.525,229.863,228.53,229.863z"/>
	<circle cx="207.47" cy="202.66" r="2.5"/>
	<path d="M22.6,207.66v6.465H11.333c-4.136,0-7.5,3.364-7.5,7.5v23.5c0,4.136,3.364,7.5,7.5,7.5h233.333c4.136,0,7.5-3.364,7.5-7.5
		v-23.5c0-4.136-3.364-7.5-7.5-7.5h-11.268v-6.465c0-4.141-3.359-7.5-7.5-7.5h-8.43c-1.38,0-2.5,1.12-2.5,2.5
		c0,1.37,1.12,2.5,2.5,2.5h8.43c1.381,0,2.5,1.12,2.5,2.5v6.46H27.6v-6.46c0-1.38,1.12-2.5,2.5-2.5h167.37c1.37,0,2.5-1.13,2.5-2.5
		c0-1.38-1.13-2.5-2.5-2.5h-6.409c3.326-3.22,5.404-7.721,5.404-12.705v-4.437c4.517-3.118,7.605-8.031,8.36-13.419
		c0.869-5.327-3.376-10.327-8.955-10.327h-6.256c0-6.885,0-13.74,0-20.679c3.935-0.388,7.026-3.972,6.426-8.194
		c-1.17-7.89-4.721-15.14-10.26-20.939c-0.921-0.97-2.57-1-3.53-0.08c-0.988,0.946-1.047,2.51-0.08,3.54c0,0,0,0,0.01,0
		c4.811,5.05,7.89,11.35,8.92,18.22c0.144,1.484-0.995,2.481-2.18,2.49c-1.174,0-115.13,0-121.75,0c-1.2-0.01-2.336-1.038-2.18-2.47
		c2.43-16.341,16.73-28.66,33.26-28.66h59.59c2.87,0,5.729,0.359,8.5,1.08c1.32,0.34,2.7-0.48,3.05-1.79
		c0.34-1.33-0.46-2.7-1.79-3.05c-3.17-0.82-6.46-1.24-9.76-1.24H98.25c-19.4,0-35.432,14.302-38.2,32.899
		c-0.673,3.697,2.136,7.76,6.426,8.192c0,6.94,0,13.797,0,20.681h-5.101c-2.874,0-5.558,1.327-7.177,3.545
		c-5.823,7.941-3.288,19.251,5.428,23.914c0,5.666,1.871,10.009,5.404,13.429H30.1C25.96,200.16,22.6,203.52,22.6,207.66z
		 M247.167,221.625v23.5c0,1.379-1.121,2.5-2.5,2.5H11.333c-1.378,0-2.5-1.121-2.5-2.5v-23.5c0-1.379,1.122-2.5,2.5-2.5h233.333
		C246.046,219.125,247.167,220.246,247.167,221.625z M143.875,164.889c-10.339-6.774-5.04-3.409-18.067-11.474h36.64
		c-4.999,5.681-1.938,2.195-10.081,11.454c-0.401,0.457-0.623,1.044-0.623,1.651v2.645c0,1.855-1.514,3.364-3.374,3.364
		c-1.855,0-3.365-1.509-3.365-3.364v-2.186C145.005,166.137,144.58,165.351,143.875,164.889z M95.518,162.87
		c0,2.372-1.93,4.303-4.303,4.303c-2.373,0-4.303-1.931-4.303-4.303c0-2.92,0-4.85,0-7.892c0-3.618-2.943-6.563-6.562-6.563h-8.875
		v-9.785h113.139v9.785c-7.037,0-59.756,0-67.595,0h-14.938c-3.618,0-6.563,2.943-6.563,6.562
		C95.518,157.949,95.518,160.037,95.518,162.87z M100.518,154.979c0-0.862,0.701-1.563,1.563-1.563h14.227l2.199,1.361l7.263,4.496
		h-25.252V154.979z M169.111,153.415h15.503v5.857h-20.659C169.074,153.457,168.781,153.791,169.111,153.415z M71.476,153.415h8.873
		c0.862,0,1.563,0.701,1.563,1.563v4.294H71.476V153.415z M58.233,165.77c0.685-0.938,1.859-1.497,3.142-1.497
		c11.727,0-0.026,0,20.642,0c0.686,4.524,4.629,7.9,9.198,7.9c4.566,0,8.513-3.387,9.197-7.9h33.399l6.193,4.058v0.835
		c0,4.612,3.753,8.364,8.365,8.364c4.617,0,8.374-3.752,8.374-8.364v-1.701l2.809-3.191c21.248,0,22.719,0,36.317,0
		c2.244,0,4.349,1.869,4.007,4.607c-1.692,12.251-17.487,17.3-25.811,7.344c-1.095-1.308-3.098-1.146-4.003,0.225
		c-4.269,6.451-12.589,8.503-19.35,4.772c-1.119-0.616-2.521-0.292-3.254,0.753c-5.506,7.844-17.01,8.362-23.217,0.99
		c-0.929-1.103-2.609-1.184-3.642-0.195c-6.84,6.553-18.719,5.045-23.27-4.154c-0.671-1.358-2.389-1.812-3.646-0.959
		c-3.955,2.689-9.192,2.581-13.028-0.268c-1.182-0.88-2.885-0.548-3.643,0.735c-2.869,4.854-8.734,6.837-13.944,4.718
		C56.221,180.045,53.948,171.614,58.233,165.77z M64.665,188.465c5.635,0.968,11.464-1.158,15.187-5.7
		c4.453,2.319,9.754,2.445,14.313,0.344c6.359,9.524,19.234,11.298,27.979,4.881c8.141,7.506,20.836,6.773,28.081-1.456
		c7.738,3.263,16.552,1.271,22.14-4.913c5.23,4.602,12.534,6.074,19.102,3.898v1.937c0,7.004-5.697,12.701-12.701,12.701H77.327
		C70.663,200.156,65.182,194.998,64.665,188.465z"/>
	<path d="M60.98,31.387c4.762,0,8.636-3.874,8.636-8.637s-3.874-8.637-8.636-8.637s-8.637,3.874-8.637,8.637
		S56.218,31.387,60.98,31.387z M60.98,19.113c2.005,0,3.636,1.632,3.636,3.637s-1.631,3.637-3.636,3.637
		c-2.005,0-3.637-1.632-3.637-3.637S58.975,19.113,60.98,19.113z"/>
	<path d="M103.126,22.75c0-4.763-3.875-8.637-8.637-8.637s-8.636,3.874-8.636,8.637s3.874,8.637,8.636,8.637
		S103.126,27.513,103.126,22.75z M90.854,22.75c0-2.005,1.631-3.637,3.636-3.637c2.005,0,3.637,1.632,3.637,3.637
		s-1.631,3.637-3.637,3.637C92.485,26.387,90.854,24.755,90.854,22.75z"/>
	<path d="M136.637,22.75c0-4.763-3.874-8.637-8.637-8.637c-4.762,0-8.636,3.874-8.636,8.637s3.874,8.637,8.636,8.637
		C132.763,31.387,136.637,27.513,136.637,22.75z M124.364,22.75c0-2.005,1.631-3.637,3.636-3.637s3.637,1.632,3.637,3.637
		s-1.632,3.637-3.637,3.637S124.364,24.755,124.364,22.75z"/>
	<path d="M161.51,31.387c4.763,0,8.637-3.874,8.637-8.637s-3.874-8.637-8.637-8.637c-4.762,0-8.636,3.874-8.636,8.637
		S156.748,31.387,161.51,31.387z M161.51,19.113c2.005,0,3.637,1.632,3.637,3.637s-1.632,3.637-3.637,3.637
		s-3.636-1.632-3.636-3.637S159.505,19.113,161.51,19.113z"/>
	<path d="M203.656,22.75c0-4.763-3.874-8.637-8.636-8.637c-4.763,0-8.637,3.874-8.637,8.637s3.874,8.637,8.637,8.637
		C199.782,31.387,203.656,27.513,203.656,22.75z M191.384,22.75c0-2.005,1.632-3.637,3.637-3.637s3.636,1.632,3.636,3.637
		s-1.631,3.637-3.636,3.637S191.384,24.755,191.384,22.75z"/>
	<path d="M237.167,22.75c0-4.763-3.874-8.637-8.637-8.637s-8.637,3.874-8.637,8.637s3.874,8.637,8.637,8.637
		S237.167,27.513,237.167,22.75z M224.894,22.75c0-2.005,1.632-3.637,3.637-3.637s3.637,1.632,3.637,3.637s-1.632,3.637-3.637,3.637
		S224.894,24.755,224.894,22.75z"/>
	<path d="M47.17,39.38c0-1.38-1.13-2.5-2.5-2.5c-1.38,0-2.5,1.12-2.5,2.5c0,1.37,1.12,2.49,2.5,2.49
		C46.04,41.87,47.17,40.75,47.17,39.38z"/>
	<path d="M244.67,3.37H11.33c-4.13,0.01-7.49,3.37-7.5,7.51v23.5c0.01,4.13,3.37,7.49,7.5,7.49h23.34c1.37,0,2.5-1.12,2.5-2.49
		c0-1.38-1.13-2.5-2.5-2.5H11.33c-1.37-0.01-2.49-1.13-2.5-2.5v-23.5c0.01-1.38,1.13-2.5,2.5-2.51h233.34
		c1.37,0.01,2.49,1.13,2.5,2.51v23.5c-0.01,1.37-1.13,2.49-2.5,2.5c-19.082,0-171.213,0-190,0c-1.38,0-2.5,1.12-2.5,2.5
		c0,1.37,1.12,2.5,2.5,2.5l44.11-0.002l4.863,16.438c0.314,1.063,1.29,1.791,2.397,1.791h6.325v10.532
		c0,3.642,2.963,6.604,6.604,6.604h6.53v7.967c0,1.381,1.119,2.5,2.5,2.5s2.5-1.119,2.5-2.5v-7.967h6.53
		c3.642,0,6.604-2.963,6.604-6.604V60.106h6.325c1.107,0,2.083-0.729,2.397-1.791l4.864-16.441l87.449-0.004
		c4.13,0,7.49-3.36,7.5-7.49v-23.5C252.16,6.74,248.8,3.38,244.67,3.37z M138.635,70.639c0,0.885-0.72,1.604-1.604,1.604H118.97
		c-0.885,0-1.604-0.72-1.604-1.604V60.106h21.27V70.639z M152.007,41.875l-3.914,13.231c-14.63,0-25.453,0-40.185,0l-3.914-13.229
		C109.379,41.877,147.611,41.875,152.007,41.875z"/>
	<path d="M134.5,51.241c1.381,0,2.5-1.119,2.5-2.5v-0.5c0-1.381-1.119-2.5-2.5-2.5s-2.5,1.119-2.5,2.5v0.5
		C132,50.122,133.119,51.241,134.5,51.241z"/>
	<path d="M143.417,51.241c1.381,0,2.5-1.119,2.5-2.5v-0.5c0-1.381-1.119-2.5-2.5-2.5s-2.5,1.119-2.5,2.5v0.5
		C140.917,50.122,142.036,51.241,143.417,51.241z"/>
	<path d="M112,50.741h13.375c1.381,0,2.5-1.119,2.5-2.5s-1.119-2.5-2.5-2.5H112c-1.381,0-2.5,1.119-2.5,2.5
		S110.619,50.741,112,50.741z"/>
	<path d="M18.833,22.75c0,4.763,3.874,8.637,8.636,8.637s8.636-3.874,8.636-8.637s-3.874-8.637-8.636-8.637
		S18.833,17.987,18.833,22.75z M31.106,22.75c0,2.005-1.631,3.637-3.636,3.637s-3.636-1.632-3.636-3.637s1.631-3.637,3.636-3.637
		S31.106,20.745,31.106,22.75z"/>
	<path d="M125.5,117.864v2.232c0,1.381,1.119,2.5,2.5,2.5s2.5-1.119,2.5-2.5v-2.232c0-1.381-1.119-2.5-2.5-2.5
		S125.5,116.483,125.5,117.864z"/>
	<path d="M109.111,113.215v2.232c0,1.381,1.119,2.5,2.5,2.5s2.5-1.119,2.5-2.5v-2.232c0-1.381-1.119-2.5-2.5-2.5
		S109.111,111.834,109.111,113.215z"/>
	<path d="M141.889,113.215v2.232c0,1.381,1.119,2.5,2.5,2.5s2.5-1.119,2.5-2.5v-2.232c0-1.381-1.119-2.5-2.5-2.5
		S141.889,111.834,141.889,113.215z"/>
	<path d="M71.04,174.597c1.381,0,2.5-1.119,2.5-2.5v-0.763c0-1.381-1.119-2.5-2.5-2.5s-2.5,1.119-2.5,2.5v0.763
		C68.54,173.478,69.659,174.597,71.04,174.597z"/>
	<path d="M161.748,177.387c1.381,0,2.5-1.119,2.5-2.5v-0.763c0-1.381-1.119-2.5-2.5-2.5s-2.5,1.119-2.5,2.5v0.763
		C159.248,176.268,160.367,177.387,161.748,177.387z"/>
	<path d="M109.2,182.867c1.381,0,2.5-1.119,2.5-2.5v-0.764c0-1.381-1.119-2.5-2.5-2.5s-2.5,1.119-2.5,2.5v0.764
		C106.7,181.748,107.819,182.867,109.2,182.867z"/>
	<path d="M191.775,172.555c1.381,0,2.5-1.119,2.5-2.5v-0.764c0-1.381-1.119-2.5-2.5-2.5s-2.5,1.119-2.5,2.5v0.764
		C189.275,171.436,190.395,172.555,191.775,172.555z"/>
	<path d="M117.02,174.216c1.381,0,2.5-1.119,2.5-2.5v-0.764c0-1.381-1.119-2.5-2.5-2.5s-2.5,1.119-2.5,2.5v0.764
		C114.52,173.097,115.639,174.216,117.02,174.216z"/>
	<path d="M174.899,107.14c1.166,0.705,2.714,0.313,3.42-0.88c0.712-1.191,0.303-2.715-0.88-3.42c-1.149-0.68-2.75-0.26-3.43,0.88
		C173.294,104.977,173.756,106.489,174.899,107.14z"/>
</g>
</svg>
